<mxfile host="app.diagrams.net" modified="2024-05-13T13:57:29.850Z" agent="Mozilla/5.0 (Windows NT 10.0; Win64; x64) AppleWebKit/537.36 (KHTML, like Gecko) Chrome/124.0.0.0 Safari/537.36" version="24.3.1" etag="tLSPL_G0CHg4Hdnt5rn-" type="github">
  <diagram name="Page-1" id="6GL2j6caFHFInoVH31UJ">
    <mxGraphModel>
      <root>
        <mxCell id="0" />
        <mxCell id="1" parent="0" />
      </root>
    </mxGraphModel>
  </diagram>
</mxfile>
